<?xml version="1.0" ?><!DOCTYPE svg  PUBLIC '-//W3C//DTD SVG 1.1//EN'  'http://www.w3.org/Graphics/SVG/1.1/DTD/svg11.dtd'><svg enable-background="new 0 0 91 91" height="91px" id="Layer_1" version="1.1" viewBox="0 0 91 91" width="91px" xml:space="preserve" xmlns="http://www.w3.org/2000/svg" xmlns:xlink="http://www.w3.org/1999/xlink"><g><g><g><path d="M23.463,42.19c0.749,10.041,4.167,18.712,8.813,23.922c3.825-5.839,5.922-14.915,5.182-24.963     c-0.749-10.045-4.167-18.72-8.811-23.923C24.823,23.06,22.72,32.142,23.463,42.19z" fill="#C5DC76"/><path d="M32.276,68.324c-0.627,0-1.229-0.268-1.65-0.739c-5.194-5.821-8.61-15.018-9.37-25.23     c-0.754-10.219,1.265-19.819,5.54-26.341c0.375-0.575,1-0.942,1.686-0.993c0.678-0.058,1.355,0.22,1.813,0.732     c5.192,5.816,8.605,15.012,9.367,25.232c0.755,10.218-1.262,19.816-5.536,26.339c-0.377,0.575-1.002,0.943-1.688,0.995     C32.387,68.322,32.331,68.324,32.276,68.324z M28.944,21.222c-2.637,5.546-3.848,13.063-3.275,20.805     c0.577,7.735,2.884,14.99,6.31,20.086c2.635-5.545,3.845-13.062,3.272-20.8C34.675,33.571,32.369,26.315,28.944,21.222z" fill="#434B56"/></g><path d="M52.188,90.914c-0.401,0-0.805-0.108-1.168-0.336c-28.437-17.696-23.363-47.571-23.31-47.871    c0.219-1.203,1.368-2,2.573-1.781c1.2,0.219,1.997,1.37,1.782,2.57l0,0c-0.198,1.105-4.534,27.254,21.292,43.327    c1.038,0.645,1.354,2.009,0.71,3.047C53.648,90.542,52.927,90.914,52.188,90.914z" fill="#434B56"/><g><path d="M51.735,24.502c-2.353,9.792-1.74,19.096,1.1,25.471c5.42-4.394,10.19-12.399,12.544-22.192     c2.353-9.794,1.741-19.098-1.097-25.472C58.861,6.699,54.086,14.708,51.735,24.502z" fill="#6AAA95"/><path d="M52.835,52.186c-0.171,0-0.346-0.02-0.516-0.06c-0.67-0.161-1.226-0.625-1.507-1.253     c-3.173-7.129-3.621-16.929-1.228-26.888c2.391-9.956,7.239-18.484,13.306-23.396c0.535-0.433,1.242-0.593,1.909-0.432     c0.671,0.161,1.225,0.623,1.505,1.252c3.169,7.126,3.617,16.927,1.225,26.889c-2.392,9.953-7.239,18.479-13.3,23.394     C53.831,52.017,53.338,52.186,52.835,52.186z M63.349,6.205c-4.207,4.48-7.65,11.27-9.462,18.813     c-1.812,7.545-1.827,15.159-0.117,21.058c4.202-4.481,7.646-11.271,9.458-18.813C65.038,19.717,65.057,12.103,63.349,6.205z" fill="#434B56"/></g><path d="M54.454,77.145c-1.08,0-2.025-0.792-2.188-1.892C45.687,30.319,63.593,7.645,64.358,6.701    c0.77-0.949,2.164-1.092,3.112-0.324c0.946,0.769,1.094,2.159,0.326,3.109l0,0c-0.174,0.217-17.43,22.254-11.15,65.126    c0.176,1.208-0.66,2.332-1.868,2.51C54.669,77.138,54.562,77.145,54.454,77.145z" fill="#434B56"/></g></g></svg>